<mxfile host="app.diagrams.net" agent="Mozilla/5.0 (Windows NT 10.0; Win64; x64) AppleWebKit/537.36 (KHTML, like Gecko) Chrome/138.0.0.0 Safari/537.36" version="28.0.7">
  <diagram name="Página-1" id="WbAFUe37ZdL7jWQSbb-3">
    <mxGraphModel dx="3007" dy="1163" grid="1" gridSize="10" guides="1" tooltips="1" connect="1" arrows="1" fold="1" page="1" pageScale="1" pageWidth="827" pageHeight="1169" math="0" shadow="0">
      <root>
        <mxCell id="0" />
        <mxCell id="1" parent="0" />
        <mxCell id="qeaOubv8tmEDspAsyxre-62" style="edgeStyle=orthogonalEdgeStyle;rounded=0;orthogonalLoop=1;jettySize=auto;html=1;entryX=0;entryY=1;entryDx=0;entryDy=0;" edge="1" parent="1" source="qeaOubv8tmEDspAsyxre-12" target="qeaOubv8tmEDspAsyxre-23">
          <mxGeometry relative="1" as="geometry" />
        </mxCell>
        <mxCell id="qeaOubv8tmEDspAsyxre-63" style="edgeStyle=orthogonalEdgeStyle;rounded=0;orthogonalLoop=1;jettySize=auto;html=1;entryX=0.5;entryY=0;entryDx=0;entryDy=0;" edge="1" parent="1" source="qeaOubv8tmEDspAsyxre-12" target="qeaOubv8tmEDspAsyxre-24">
          <mxGeometry relative="1" as="geometry" />
        </mxCell>
        <mxCell id="qeaOubv8tmEDspAsyxre-77" style="edgeStyle=orthogonalEdgeStyle;rounded=0;orthogonalLoop=1;jettySize=auto;html=1;entryX=1;entryY=0.5;entryDx=0;entryDy=0;" edge="1" parent="1" source="qeaOubv8tmEDspAsyxre-12" target="qeaOubv8tmEDspAsyxre-74">
          <mxGeometry relative="1" as="geometry" />
        </mxCell>
        <mxCell id="qeaOubv8tmEDspAsyxre-12" value="SEMESTRE/ANO" style="rounded=0;whiteSpace=wrap;html=1;" vertex="1" parent="1">
          <mxGeometry x="380" y="260" width="120" height="60" as="geometry" />
        </mxCell>
        <mxCell id="qeaOubv8tmEDspAsyxre-65" style="edgeStyle=orthogonalEdgeStyle;rounded=0;orthogonalLoop=1;jettySize=auto;html=1;entryX=0;entryY=1;entryDx=0;entryDy=0;" edge="1" parent="1" source="qeaOubv8tmEDspAsyxre-15" target="qeaOubv8tmEDspAsyxre-47">
          <mxGeometry relative="1" as="geometry" />
        </mxCell>
        <mxCell id="qeaOubv8tmEDspAsyxre-66" style="edgeStyle=orthogonalEdgeStyle;rounded=0;orthogonalLoop=1;jettySize=auto;html=1;" edge="1" parent="1" source="qeaOubv8tmEDspAsyxre-15" target="qeaOubv8tmEDspAsyxre-34">
          <mxGeometry relative="1" as="geometry" />
        </mxCell>
        <mxCell id="qeaOubv8tmEDspAsyxre-67" style="edgeStyle=orthogonalEdgeStyle;rounded=0;orthogonalLoop=1;jettySize=auto;html=1;" edge="1" parent="1" source="qeaOubv8tmEDspAsyxre-15" target="qeaOubv8tmEDspAsyxre-30">
          <mxGeometry relative="1" as="geometry" />
        </mxCell>
        <mxCell id="qeaOubv8tmEDspAsyxre-68" style="edgeStyle=orthogonalEdgeStyle;rounded=0;orthogonalLoop=1;jettySize=auto;html=1;" edge="1" parent="1" source="qeaOubv8tmEDspAsyxre-15" target="qeaOubv8tmEDspAsyxre-28">
          <mxGeometry relative="1" as="geometry" />
        </mxCell>
        <mxCell id="qeaOubv8tmEDspAsyxre-69" style="edgeStyle=orthogonalEdgeStyle;rounded=0;orthogonalLoop=1;jettySize=auto;html=1;" edge="1" parent="1" source="qeaOubv8tmEDspAsyxre-15" target="qeaOubv8tmEDspAsyxre-32">
          <mxGeometry relative="1" as="geometry" />
        </mxCell>
        <mxCell id="qeaOubv8tmEDspAsyxre-70" style="edgeStyle=orthogonalEdgeStyle;rounded=0;orthogonalLoop=1;jettySize=auto;html=1;entryX=1;entryY=0.5;entryDx=0;entryDy=0;" edge="1" parent="1" source="qeaOubv8tmEDspAsyxre-15" target="qeaOubv8tmEDspAsyxre-37">
          <mxGeometry relative="1" as="geometry" />
        </mxCell>
        <mxCell id="qeaOubv8tmEDspAsyxre-81" style="edgeStyle=orthogonalEdgeStyle;rounded=0;orthogonalLoop=1;jettySize=auto;html=1;entryX=0.5;entryY=1;entryDx=0;entryDy=0;" edge="1" parent="1" source="qeaOubv8tmEDspAsyxre-15" target="qeaOubv8tmEDspAsyxre-24">
          <mxGeometry relative="1" as="geometry" />
        </mxCell>
        <mxCell id="qeaOubv8tmEDspAsyxre-117" style="edgeStyle=orthogonalEdgeStyle;rounded=0;orthogonalLoop=1;jettySize=auto;html=1;" edge="1" parent="1" source="qeaOubv8tmEDspAsyxre-15" target="qeaOubv8tmEDspAsyxre-52">
          <mxGeometry relative="1" as="geometry" />
        </mxCell>
        <mxCell id="qeaOubv8tmEDspAsyxre-125" style="edgeStyle=orthogonalEdgeStyle;rounded=0;orthogonalLoop=1;jettySize=auto;html=1;entryX=0;entryY=0.5;entryDx=0;entryDy=0;" edge="1" parent="1" source="qeaOubv8tmEDspAsyxre-15" target="qeaOubv8tmEDspAsyxre-118">
          <mxGeometry relative="1" as="geometry" />
        </mxCell>
        <mxCell id="qeaOubv8tmEDspAsyxre-141" style="edgeStyle=orthogonalEdgeStyle;rounded=0;orthogonalLoop=1;jettySize=auto;html=1;entryX=1;entryY=0.5;entryDx=0;entryDy=0;" edge="1" parent="1" source="qeaOubv8tmEDspAsyxre-15" target="qeaOubv8tmEDspAsyxre-43">
          <mxGeometry relative="1" as="geometry" />
        </mxCell>
        <mxCell id="qeaOubv8tmEDspAsyxre-144" style="edgeStyle=orthogonalEdgeStyle;rounded=0;orthogonalLoop=1;jettySize=auto;html=1;entryX=0;entryY=0.5;entryDx=0;entryDy=0;" edge="1" parent="1" source="qeaOubv8tmEDspAsyxre-15" target="qeaOubv8tmEDspAsyxre-118">
          <mxGeometry relative="1" as="geometry" />
        </mxCell>
        <mxCell id="qeaOubv8tmEDspAsyxre-15" value="DISCIPLINA" style="rounded=0;whiteSpace=wrap;html=1;" vertex="1" parent="1">
          <mxGeometry x="370" y="555" width="120" height="60" as="geometry" />
        </mxCell>
        <mxCell id="qeaOubv8tmEDspAsyxre-23" value="INICIO/FIM&lt;div&gt;DURAÇÃO&lt;/div&gt;" style="ellipse;whiteSpace=wrap;html=1;aspect=fixed;" vertex="1" parent="1">
          <mxGeometry x="510" y="160" width="80" height="80" as="geometry" />
        </mxCell>
        <mxCell id="qeaOubv8tmEDspAsyxre-64" style="edgeStyle=orthogonalEdgeStyle;rounded=0;orthogonalLoop=1;jettySize=auto;html=1;entryX=0.5;entryY=0;entryDx=0;entryDy=0;" edge="1" parent="1" source="qeaOubv8tmEDspAsyxre-24" target="qeaOubv8tmEDspAsyxre-15">
          <mxGeometry relative="1" as="geometry" />
        </mxCell>
        <mxCell id="qeaOubv8tmEDspAsyxre-80" style="edgeStyle=orthogonalEdgeStyle;rounded=0;orthogonalLoop=1;jettySize=auto;html=1;" edge="1" parent="1" source="qeaOubv8tmEDspAsyxre-24">
          <mxGeometry relative="1" as="geometry">
            <mxPoint x="440" y="320" as="targetPoint" />
          </mxGeometry>
        </mxCell>
        <mxCell id="qeaOubv8tmEDspAsyxre-24" value="" style="rhombus;whiteSpace=wrap;html=1;" vertex="1" parent="1">
          <mxGeometry x="400" y="360" width="80" height="80" as="geometry" />
        </mxCell>
        <mxCell id="qeaOubv8tmEDspAsyxre-26" value="N" style="text;html=1;align=center;verticalAlign=middle;resizable=0;points=[];autosize=1;strokeColor=none;fillColor=none;" vertex="1" parent="1">
          <mxGeometry x="445" y="443" width="30" height="30" as="geometry" />
        </mxCell>
        <mxCell id="qeaOubv8tmEDspAsyxre-27" value="1" style="text;html=1;align=center;verticalAlign=middle;resizable=0;points=[];autosize=1;strokeColor=none;fillColor=none;" vertex="1" parent="1">
          <mxGeometry x="445" y="330" width="30" height="30" as="geometry" />
        </mxCell>
        <mxCell id="qeaOubv8tmEDspAsyxre-28" value="CARGA&lt;div&gt;HORARIA&lt;/div&gt;" style="ellipse;whiteSpace=wrap;html=1;aspect=fixed;" vertex="1" parent="1">
          <mxGeometry x="170" y="600" width="80" height="80" as="geometry" />
        </mxCell>
        <mxCell id="qeaOubv8tmEDspAsyxre-30" value="HORARIO" style="ellipse;whiteSpace=wrap;html=1;aspect=fixed;" vertex="1" parent="1">
          <mxGeometry x="550" y="680" width="80" height="80" as="geometry" />
        </mxCell>
        <mxCell id="qeaOubv8tmEDspAsyxre-32" value="FALTA/&lt;div&gt;PRESENÇA&lt;/div&gt;" style="ellipse;whiteSpace=wrap;html=1;aspect=fixed;" vertex="1" parent="1">
          <mxGeometry x="268" y="690" width="80" height="80" as="geometry" />
        </mxCell>
        <mxCell id="qeaOubv8tmEDspAsyxre-34" value="LOCAL" style="ellipse;whiteSpace=wrap;html=1;aspect=fixed;" vertex="1" parent="1">
          <mxGeometry x="615" y="545" width="80" height="80" as="geometry" />
        </mxCell>
        <mxCell id="qeaOubv8tmEDspAsyxre-37" value="" style="rhombus;whiteSpace=wrap;html=1;" vertex="1" parent="1">
          <mxGeometry x="250" y="418" width="80" height="80" as="geometry" />
        </mxCell>
        <mxCell id="qeaOubv8tmEDspAsyxre-40" value="N" style="text;html=1;align=center;verticalAlign=middle;resizable=0;points=[];autosize=1;strokeColor=none;fillColor=none;" vertex="1" parent="1">
          <mxGeometry x="238" y="442" width="30" height="30" as="geometry" />
        </mxCell>
        <mxCell id="qeaOubv8tmEDspAsyxre-41" value="1" style="text;html=1;align=center;verticalAlign=middle;resizable=0;points=[];autosize=1;strokeColor=none;fillColor=none;" vertex="1" parent="1">
          <mxGeometry x="330" y="440" width="30" height="30" as="geometry" />
        </mxCell>
        <mxCell id="qeaOubv8tmEDspAsyxre-43" value="TIPO MEDIA" style="ellipse;whiteSpace=wrap;html=1;aspect=fixed;" vertex="1" parent="1">
          <mxGeometry x="170" y="510" width="80" height="80" as="geometry" />
        </mxCell>
        <mxCell id="qeaOubv8tmEDspAsyxre-44" value="NOTAS INDIVIDUAIS" style="ellipse;whiteSpace=wrap;html=1;aspect=fixed;" vertex="1" parent="1">
          <mxGeometry x="125" y="415" width="80" height="80" as="geometry" />
        </mxCell>
        <mxCell id="qeaOubv8tmEDspAsyxre-45" value="ID" style="ellipse;whiteSpace=wrap;html=1;aspect=fixed;fillColor=#808080;" vertex="1" parent="1">
          <mxGeometry x="390" y="140" width="80" height="80" as="geometry" />
        </mxCell>
        <mxCell id="qeaOubv8tmEDspAsyxre-47" value="ID" style="ellipse;whiteSpace=wrap;html=1;aspect=fixed;fillColor=#999999;" vertex="1" parent="1">
          <mxGeometry x="510" y="418" width="80" height="80" as="geometry" />
        </mxCell>
        <mxCell id="qeaOubv8tmEDspAsyxre-110" style="edgeStyle=orthogonalEdgeStyle;rounded=0;orthogonalLoop=1;jettySize=auto;html=1;" edge="1" parent="1" source="qeaOubv8tmEDspAsyxre-51" target="qeaOubv8tmEDspAsyxre-52">
          <mxGeometry relative="1" as="geometry" />
        </mxCell>
        <mxCell id="qeaOubv8tmEDspAsyxre-51" value="ANOTAÇÕES&lt;div&gt;DA DISCIPLINA&lt;/div&gt;" style="rounded=0;whiteSpace=wrap;html=1;" vertex="1" parent="1">
          <mxGeometry x="260" y="930" width="120" height="60" as="geometry" />
        </mxCell>
        <mxCell id="qeaOubv8tmEDspAsyxre-54" style="edgeStyle=orthogonalEdgeStyle;rounded=0;orthogonalLoop=1;jettySize=auto;html=1;exitX=0.5;exitY=1;exitDx=0;exitDy=0;entryX=0.5;entryY=0;entryDx=0;entryDy=0;" edge="1" parent="1" source="qeaOubv8tmEDspAsyxre-52" target="qeaOubv8tmEDspAsyxre-51">
          <mxGeometry relative="1" as="geometry" />
        </mxCell>
        <mxCell id="qeaOubv8tmEDspAsyxre-109" style="edgeStyle=orthogonalEdgeStyle;rounded=0;orthogonalLoop=1;jettySize=auto;html=1;entryX=0.5;entryY=1;entryDx=0;entryDy=0;" edge="1" parent="1" source="qeaOubv8tmEDspAsyxre-52" target="qeaOubv8tmEDspAsyxre-15">
          <mxGeometry relative="1" as="geometry" />
        </mxCell>
        <mxCell id="qeaOubv8tmEDspAsyxre-52" value="" style="rhombus;whiteSpace=wrap;html=1;" vertex="1" parent="1">
          <mxGeometry x="325" y="810" width="80" height="80" as="geometry" />
        </mxCell>
        <mxCell id="qeaOubv8tmEDspAsyxre-55" value="N" style="text;html=1;align=center;verticalAlign=middle;resizable=0;points=[];autosize=1;strokeColor=none;fillColor=none;" vertex="1" parent="1">
          <mxGeometry x="435" y="798" width="30" height="30" as="geometry" />
        </mxCell>
        <mxCell id="qeaOubv8tmEDspAsyxre-61" style="edgeStyle=orthogonalEdgeStyle;rounded=0;orthogonalLoop=1;jettySize=auto;html=1;entryX=0.59;entryY=1.021;entryDx=0;entryDy=0;entryPerimeter=0;" edge="1" parent="1" source="qeaOubv8tmEDspAsyxre-12" target="qeaOubv8tmEDspAsyxre-45">
          <mxGeometry relative="1" as="geometry" />
        </mxCell>
        <mxCell id="qeaOubv8tmEDspAsyxre-75" style="edgeStyle=orthogonalEdgeStyle;rounded=0;orthogonalLoop=1;jettySize=auto;html=1;exitX=1;exitY=0.5;exitDx=0;exitDy=0;entryX=0;entryY=0.5;entryDx=0;entryDy=0;" edge="1" parent="1" source="qeaOubv8tmEDspAsyxre-73" target="qeaOubv8tmEDspAsyxre-74">
          <mxGeometry relative="1" as="geometry" />
        </mxCell>
        <mxCell id="qeaOubv8tmEDspAsyxre-85" style="edgeStyle=orthogonalEdgeStyle;rounded=0;orthogonalLoop=1;jettySize=auto;html=1;entryX=0.5;entryY=1;entryDx=0;entryDy=0;" edge="1" parent="1" source="qeaOubv8tmEDspAsyxre-73" target="qeaOubv8tmEDspAsyxre-84">
          <mxGeometry relative="1" as="geometry" />
        </mxCell>
        <mxCell id="qeaOubv8tmEDspAsyxre-88" style="edgeStyle=orthogonalEdgeStyle;rounded=0;orthogonalLoop=1;jettySize=auto;html=1;entryX=1;entryY=0.5;entryDx=0;entryDy=0;" edge="1" parent="1" target="qeaOubv8tmEDspAsyxre-87">
          <mxGeometry relative="1" as="geometry">
            <mxPoint x="-10" y="208" as="sourcePoint" />
          </mxGeometry>
        </mxCell>
        <mxCell id="qeaOubv8tmEDspAsyxre-99" style="edgeStyle=orthogonalEdgeStyle;rounded=0;orthogonalLoop=1;jettySize=auto;html=1;entryX=1;entryY=0.5;entryDx=0;entryDy=0;" edge="1" parent="1" source="qeaOubv8tmEDspAsyxre-73" target="qeaOubv8tmEDspAsyxre-97">
          <mxGeometry relative="1" as="geometry" />
        </mxCell>
        <mxCell id="qeaOubv8tmEDspAsyxre-73" value="USUARIO" style="rounded=0;whiteSpace=wrap;html=1;" vertex="1" parent="1">
          <mxGeometry x="70" y="260" width="120" height="60" as="geometry" />
        </mxCell>
        <mxCell id="qeaOubv8tmEDspAsyxre-76" style="edgeStyle=orthogonalEdgeStyle;rounded=0;orthogonalLoop=1;jettySize=auto;html=1;entryX=0;entryY=0.5;entryDx=0;entryDy=0;" edge="1" parent="1" source="qeaOubv8tmEDspAsyxre-74" target="qeaOubv8tmEDspAsyxre-12">
          <mxGeometry relative="1" as="geometry" />
        </mxCell>
        <mxCell id="qeaOubv8tmEDspAsyxre-79" style="edgeStyle=orthogonalEdgeStyle;rounded=0;orthogonalLoop=1;jettySize=auto;html=1;entryX=1;entryY=0.5;entryDx=0;entryDy=0;" edge="1" parent="1" source="qeaOubv8tmEDspAsyxre-74" target="qeaOubv8tmEDspAsyxre-73">
          <mxGeometry relative="1" as="geometry" />
        </mxCell>
        <mxCell id="qeaOubv8tmEDspAsyxre-74" value="" style="rhombus;whiteSpace=wrap;html=1;" vertex="1" parent="1">
          <mxGeometry x="240" y="250" width="80" height="80" as="geometry" />
        </mxCell>
        <mxCell id="qeaOubv8tmEDspAsyxre-82" value="1" style="text;html=1;align=center;verticalAlign=middle;resizable=0;points=[];autosize=1;strokeColor=none;fillColor=none;" vertex="1" parent="1">
          <mxGeometry x="205" y="248" width="30" height="30" as="geometry" />
        </mxCell>
        <mxCell id="qeaOubv8tmEDspAsyxre-83" value="N" style="text;html=1;align=center;verticalAlign=middle;resizable=0;points=[];autosize=1;strokeColor=none;fillColor=none;" vertex="1" parent="1">
          <mxGeometry x="325" y="248" width="30" height="30" as="geometry" />
        </mxCell>
        <mxCell id="qeaOubv8tmEDspAsyxre-84" value="ID" style="ellipse;whiteSpace=wrap;html=1;aspect=fixed;fillColor=#999999;" vertex="1" parent="1">
          <mxGeometry x="40" y="120" width="80" height="80" as="geometry" />
        </mxCell>
        <mxCell id="qeaOubv8tmEDspAsyxre-91" style="edgeStyle=orthogonalEdgeStyle;rounded=0;orthogonalLoop=1;jettySize=auto;html=1;entryX=0;entryY=0.5;entryDx=0;entryDy=0;" edge="1" parent="1" source="qeaOubv8tmEDspAsyxre-86" target="qeaOubv8tmEDspAsyxre-87">
          <mxGeometry relative="1" as="geometry" />
        </mxCell>
        <mxCell id="qeaOubv8tmEDspAsyxre-94" style="edgeStyle=orthogonalEdgeStyle;rounded=0;orthogonalLoop=1;jettySize=auto;html=1;entryX=0.5;entryY=1;entryDx=0;entryDy=0;" edge="1" parent="1" source="qeaOubv8tmEDspAsyxre-86" target="qeaOubv8tmEDspAsyxre-93">
          <mxGeometry relative="1" as="geometry" />
        </mxCell>
        <mxCell id="qeaOubv8tmEDspAsyxre-86" value="ANOTAÇÕES AVULSAS" style="rounded=0;whiteSpace=wrap;html=1;" vertex="1" parent="1">
          <mxGeometry x="-340" y="178" width="120" height="60" as="geometry" />
        </mxCell>
        <mxCell id="qeaOubv8tmEDspAsyxre-89" style="edgeStyle=orthogonalEdgeStyle;rounded=0;orthogonalLoop=1;jettySize=auto;html=1;entryX=1;entryY=0.5;entryDx=0;entryDy=0;" edge="1" parent="1" source="qeaOubv8tmEDspAsyxre-87" target="qeaOubv8tmEDspAsyxre-86">
          <mxGeometry relative="1" as="geometry" />
        </mxCell>
        <mxCell id="qeaOubv8tmEDspAsyxre-92" style="edgeStyle=orthogonalEdgeStyle;rounded=0;orthogonalLoop=1;jettySize=auto;html=1;entryX=0;entryY=0.5;entryDx=0;entryDy=0;" edge="1" parent="1" source="qeaOubv8tmEDspAsyxre-87" target="qeaOubv8tmEDspAsyxre-73">
          <mxGeometry relative="1" as="geometry">
            <mxPoint x="-10" y="208" as="targetPoint" />
          </mxGeometry>
        </mxCell>
        <mxCell id="qeaOubv8tmEDspAsyxre-87" value="" style="rhombus;whiteSpace=wrap;html=1;" vertex="1" parent="1">
          <mxGeometry x="-160" y="168" width="80" height="80" as="geometry" />
        </mxCell>
        <mxCell id="qeaOubv8tmEDspAsyxre-93" value="DATA HORA&lt;div&gt;DE&lt;/div&gt;&lt;div&gt;NOTIFICAÇÃO&lt;/div&gt;" style="ellipse;whiteSpace=wrap;html=1;aspect=fixed;" vertex="1" parent="1">
          <mxGeometry x="-300" y="18" width="102" height="102" as="geometry" />
        </mxCell>
        <mxCell id="qeaOubv8tmEDspAsyxre-95" value="N" style="text;html=1;align=center;verticalAlign=middle;resizable=0;points=[];autosize=1;strokeColor=none;fillColor=none;" vertex="1" parent="1">
          <mxGeometry x="-195" y="176" width="30" height="30" as="geometry" />
        </mxCell>
        <mxCell id="qeaOubv8tmEDspAsyxre-96" value="1" style="text;html=1;align=center;verticalAlign=middle;resizable=0;points=[];autosize=1;strokeColor=none;fillColor=none;" vertex="1" parent="1">
          <mxGeometry x="-65" y="176" width="30" height="30" as="geometry" />
        </mxCell>
        <mxCell id="qeaOubv8tmEDspAsyxre-100" style="edgeStyle=orthogonalEdgeStyle;rounded=0;orthogonalLoop=1;jettySize=auto;html=1;entryX=1;entryY=0.5;entryDx=0;entryDy=0;" edge="1" parent="1" source="qeaOubv8tmEDspAsyxre-97" target="qeaOubv8tmEDspAsyxre-98">
          <mxGeometry relative="1" as="geometry" />
        </mxCell>
        <mxCell id="qeaOubv8tmEDspAsyxre-97" value="" style="rhombus;whiteSpace=wrap;html=1;" vertex="1" parent="1">
          <mxGeometry x="-160" y="278" width="80" height="80" as="geometry" />
        </mxCell>
        <mxCell id="qeaOubv8tmEDspAsyxre-101" style="edgeStyle=orthogonalEdgeStyle;rounded=0;orthogonalLoop=1;jettySize=auto;html=1;" edge="1" parent="1" source="qeaOubv8tmEDspAsyxre-98">
          <mxGeometry relative="1" as="geometry">
            <mxPoint x="-160" y="318" as="targetPoint" />
          </mxGeometry>
        </mxCell>
        <mxCell id="qeaOubv8tmEDspAsyxre-106" style="edgeStyle=orthogonalEdgeStyle;rounded=0;orthogonalLoop=1;jettySize=auto;html=1;entryX=0.5;entryY=0;entryDx=0;entryDy=0;" edge="1" parent="1" source="qeaOubv8tmEDspAsyxre-98" target="qeaOubv8tmEDspAsyxre-104">
          <mxGeometry relative="1" as="geometry" />
        </mxCell>
        <mxCell id="qeaOubv8tmEDspAsyxre-107" style="edgeStyle=orthogonalEdgeStyle;rounded=0;orthogonalLoop=1;jettySize=auto;html=1;entryX=0.5;entryY=0;entryDx=0;entryDy=0;" edge="1" parent="1" source="qeaOubv8tmEDspAsyxre-98" target="qeaOubv8tmEDspAsyxre-105">
          <mxGeometry relative="1" as="geometry" />
        </mxCell>
        <mxCell id="qeaOubv8tmEDspAsyxre-98" value="EVENTOS AVULSOS" style="rounded=0;whiteSpace=wrap;html=1;" vertex="1" parent="1">
          <mxGeometry x="-340" y="288" width="120" height="60" as="geometry" />
        </mxCell>
        <mxCell id="qeaOubv8tmEDspAsyxre-102" value="N" style="text;html=1;align=center;verticalAlign=middle;resizable=0;points=[];autosize=1;strokeColor=none;fillColor=none;" vertex="1" parent="1">
          <mxGeometry x="-195" y="278" width="30" height="30" as="geometry" />
        </mxCell>
        <mxCell id="qeaOubv8tmEDspAsyxre-103" value="1" style="text;html=1;align=center;verticalAlign=middle;resizable=0;points=[];autosize=1;strokeColor=none;fillColor=none;" vertex="1" parent="1">
          <mxGeometry x="-65" y="278" width="30" height="30" as="geometry" />
        </mxCell>
        <mxCell id="qeaOubv8tmEDspAsyxre-104" value="DATA/HORA" style="ellipse;whiteSpace=wrap;html=1;aspect=fixed;" vertex="1" parent="1">
          <mxGeometry x="-410" y="400" width="80" height="80" as="geometry" />
        </mxCell>
        <mxCell id="qeaOubv8tmEDspAsyxre-105" value="DATA HORA DE NOTIFICAÇÃO" style="ellipse;whiteSpace=wrap;html=1;aspect=fixed;" vertex="1" parent="1">
          <mxGeometry x="-275" y="400" width="100" height="100" as="geometry" />
        </mxCell>
        <mxCell id="qeaOubv8tmEDspAsyxre-56" value="1" style="text;html=1;align=center;verticalAlign=middle;resizable=0;points=[];autosize=1;strokeColor=none;fillColor=none;" vertex="1" parent="1">
          <mxGeometry x="450" y="690" width="30" height="30" as="geometry" />
        </mxCell>
        <mxCell id="qeaOubv8tmEDspAsyxre-116" value="" style="endArrow=classic;startArrow=classic;html=1;rounded=0;exitX=1;exitY=0.5;exitDx=0;exitDy=0;entryX=0;entryY=0.5;entryDx=0;entryDy=0;" edge="1" parent="1" source="qeaOubv8tmEDspAsyxre-44" target="qeaOubv8tmEDspAsyxre-37">
          <mxGeometry width="50" height="50" relative="1" as="geometry">
            <mxPoint x="205" y="484" as="sourcePoint" />
            <mxPoint x="270" y="470" as="targetPoint" />
          </mxGeometry>
        </mxCell>
        <mxCell id="qeaOubv8tmEDspAsyxre-126" style="edgeStyle=orthogonalEdgeStyle;rounded=0;orthogonalLoop=1;jettySize=auto;html=1;" edge="1" parent="1" source="qeaOubv8tmEDspAsyxre-118" target="qeaOubv8tmEDspAsyxre-119">
          <mxGeometry relative="1" as="geometry" />
        </mxCell>
        <mxCell id="qeaOubv8tmEDspAsyxre-118" value="" style="rhombus;whiteSpace=wrap;html=1;" vertex="1" parent="1">
          <mxGeometry x="450" y="828" width="80" height="80" as="geometry" />
        </mxCell>
        <mxCell id="qeaOubv8tmEDspAsyxre-121" style="edgeStyle=orthogonalEdgeStyle;rounded=0;orthogonalLoop=1;jettySize=auto;html=1;entryX=0;entryY=0.5;entryDx=0;entryDy=0;" edge="1" parent="1" source="qeaOubv8tmEDspAsyxre-119" target="qeaOubv8tmEDspAsyxre-120">
          <mxGeometry relative="1" as="geometry" />
        </mxCell>
        <mxCell id="qeaOubv8tmEDspAsyxre-127" style="edgeStyle=orthogonalEdgeStyle;rounded=0;orthogonalLoop=1;jettySize=auto;html=1;entryX=0.5;entryY=1;entryDx=0;entryDy=0;" edge="1" parent="1" source="qeaOubv8tmEDspAsyxre-119" target="qeaOubv8tmEDspAsyxre-118">
          <mxGeometry relative="1" as="geometry" />
        </mxCell>
        <mxCell id="qeaOubv8tmEDspAsyxre-119" value="EVENTOS DA DISCIPLINA&lt;div&gt;(PROVAS, TRABALHOS)&lt;/div&gt;" style="rounded=0;whiteSpace=wrap;html=1;" vertex="1" parent="1">
          <mxGeometry x="430" y="960" width="120" height="60" as="geometry" />
        </mxCell>
        <mxCell id="qeaOubv8tmEDspAsyxre-120" value="DATA DE ENTREGA&lt;div&gt;(NOTIFICAÇÃO)&lt;/div&gt;" style="ellipse;whiteSpace=wrap;html=1;aspect=fixed;" vertex="1" parent="1">
          <mxGeometry x="600" y="935" width="110" height="110" as="geometry" />
        </mxCell>
        <mxCell id="qeaOubv8tmEDspAsyxre-128" value="1" style="text;html=1;align=center;verticalAlign=middle;resizable=0;points=[];autosize=1;strokeColor=none;fillColor=none;" vertex="1" parent="1">
          <mxGeometry x="535" y="788" width="30" height="30" as="geometry" />
        </mxCell>
        <mxCell id="qeaOubv8tmEDspAsyxre-129" value="N" style="text;html=1;align=center;verticalAlign=middle;resizable=0;points=[];autosize=1;strokeColor=none;fillColor=none;" vertex="1" parent="1">
          <mxGeometry x="550" y="900" width="30" height="30" as="geometry" />
        </mxCell>
      </root>
    </mxGraphModel>
  </diagram>
</mxfile>
